<?xml version="1.0" encoding="UTF-8" standalone="no"?>
<!DOCTYPE svg PUBLIC "-//W3C//DTD SVG 1.1//EN" "http://www.w3.org/Graphics/SVG/1.1/DTD/svg11.dtd">
<svg height="100%" version="1.1" viewBox="0 0 128 32" width="100%" xmlns="http://www.w3.org/2000/svg">
<defs/>
	<path d="M17.223 10.4377C15.8304 10.4377 14.6377 10.8848 13.6377 11.8115C12.4859 12.8796 11.9288 14.2754 11.9288 15.9665C11.9288 17.6209 12.4058 18.9455 13.4031 19.9874C14.4005 21.0293 15.6565 21.5623 17.1225 21.5623C18.5728 21.5623 19.7874 21.022 20.8084 19.9539C21.8293 18.8859 22.3497 17.5508 22.3497 15.933C22.3497 14.3623 21.855 13.0623 20.8419 12.0126C19.8288 10.9628 18.6052 10.4377 17.223 10.4377ZM53.311 10.4377C52.2482 10.4377 51.3099 10.6524 50.5298 11.1079C49.5979 11.6576 48.8859 12.4325 48.3518 13.4534C47.9016 14.312 47.6482 15.2304 47.6482 16.1675C47.6482 17.4607 48.0534 18.5958 48.8545 19.5853C49.9225 20.9047 51.488 21.5623 53.5455 21.5623C54.2628 21.5623 54.9361 21.4796 55.5225 21.3277C56.1089 21.1759 56.6963 20.9487 57.2984 20.6241L57.2984 17.3738C57.2984 16.8031 57.3277 16.3948 57.4325 16.201C57.5843 15.9288 57.8618 15.799 58.2702 15.799L58.4712 15.799L58.4712 15.4974L54.3497 15.4974L54.3497 15.799C54.7791 15.799 55.0843 15.8466 55.2545 15.933C55.4246 16.0194 55.5419 16.1366 55.623 16.3016C55.7042 16.4665 55.7571 16.8398 55.7571 17.3738L55.7571 20.4565C55.4168 20.6503 55.0513 20.7927 54.6848 20.8921C54.3183 20.9916 53.9382 21.0262 53.5455 21.0262C52.8754 21.0262 52.2382 20.8466 51.6021 20.4565C50.966 20.0665 50.4534 19.4513 50.0607 18.6136C49.6681 17.7759 49.4576 16.8482 49.4576 15.8325C49.4576 14.5812 49.7707 13.488 50.3623 12.5822C51.0691 11.5089 52.089 10.9738 53.445 10.9738C54.4398 10.9738 55.2576 11.2995 55.8911 11.912C56.3309 12.3361 56.6859 12.9508 56.9634 13.7885L57.2314 13.7885L56.9634 10.4377L56.6618 10.4377C56.6461 10.7047 56.6319 10.8822 56.5613 10.9738C56.4906 11.0654 56.3927 11.1079 56.2932 11.1079C56.1937 11.1079 55.9832 11.0503 55.6901 10.9403C55.1089 10.7257 54.6665 10.601 54.3497 10.5382C54.033 10.4754 53.6984 10.4377 53.311 10.4377ZM0 10.6723L0 10.9738L0.402094 10.9738C0.653403 10.9738 0.875393 11.0157 1.10576 11.1414C1.26806 11.2356 1.38848 11.3455 1.44084 11.4764C1.5089 11.6492 1.54136 12.0042 1.54136 12.5487L1.54136 19.4513C1.54136 20.0901 1.46597 20.4901 1.34031 20.6576C1.14136 20.9141 0.841884 21.0262 0.402094 21.0262L0 21.0262L0 21.3277L4.59058 21.3277L4.59058 21.0262L4.18848 21.0262C3.93717 21.0262 3.70995 20.9508 3.48482 20.8251C3.31728 20.7309 3.20209 20.6209 3.14974 20.4901C3.08168 20.3173 3.04921 19.9906 3.04921 19.4513L3.04921 16.201L8.00838 16.201L8.00838 19.4513C8.00838 20.0901 7.93822 20.4901 7.80733 20.6576C7.60838 20.9141 7.27016 21.0262 6.8356 21.0262L6.46702 21.0262L6.46702 21.3277L11.0241 21.3277L11.0241 21.0262L10.6555 21.0262C10.4042 21.0262 10.1487 20.9508 9.91832 20.8251C9.75602 20.7309 9.66911 20.6209 9.61675 20.4901C9.54869 20.3173 9.51623 19.9906 9.51623 19.4513L9.51623 12.5487C9.51623 12.0251 9.52304 11.6801 9.58325 11.5099C9.64346 11.3398 9.75079 11.2251 9.91832 11.1414C10.1435 11.0209 10.4042 10.9738 10.6555 10.9738L11.0241 10.9738L11.0241 10.6723L6.46702 10.6723L6.46702 10.9738L6.8356 10.9738C7.08691 10.9738 7.34764 11.0157 7.57277 11.1414C7.74031 11.2356 7.8555 11.3455 7.90785 11.4764C7.97592 11.6492 8.00838 12.0042 8.00838 12.5487L8.00838 15.5979L3.04921 15.5979L3.04921 12.5487C3.04921 12.0251 3.08691 11.6801 3.14974 11.5099C3.21257 11.3398 3.32251 11.2251 3.48482 11.1414C3.70995 11.0209 3.93717 10.9738 4.18848 10.9738L4.59058 10.9738L4.59058 10.6723L0 10.6723ZM23.2209 10.6723L23.2209 10.9738C23.6555 10.9738 23.9963 11.0058 24.1927 11.1079C24.389 11.2099 24.5215 11.3581 24.5948 11.5099C24.6995 11.7194 24.7288 12.044 24.7288 12.5152L24.7288 19.4848C24.7288 20.0817 24.6764 20.4565 24.5613 20.6241C24.3728 20.8963 24.0733 21.0262 23.623 21.0262L23.2209 21.0262L23.2209 21.3277L26.9403 21.3277L26.9403 21.0262L26.5717 21.0262C26.1529 21.0262 25.8272 20.911 25.6335 20.6911C25.4921 20.5288 25.4325 20.1393 25.4325 19.4848L25.4325 12.3476L29.5539 21.3277L29.822 21.3277L33.9099 12.3476L33.9099 19.4848C33.9099 20.0817 33.8576 20.4565 33.7424 20.6241C33.5592 20.8963 33.2262 21.0262 32.7707 21.0262L32.4021 21.0262L32.4021 21.3277L36.9257 21.3277L36.9257 21.0262L36.5571 21.0262C36.1382 21.0262 35.8461 20.911 35.6524 20.6911C35.5058 20.5288 35.4178 20.1393 35.4178 19.4848L35.4178 12.5152C35.4178 11.9183 35.4702 11.5435 35.5853 11.3759C35.7738 11.1037 36.1016 10.9738 36.5571 10.9738L36.9257 10.9738L36.9257 10.6723L33.9099 10.6723L30.1236 19.0157L26.2366 10.6723L23.2209 10.6723ZM37.5958 10.6723L37.5958 10.9738L37.9644 10.9738C38.4042 10.9738 38.7476 11.066 38.9361 11.2754C39.0723 11.4325 39.1372 11.8398 39.1372 12.5152L39.1372 19.4513C39.1372 19.9696 39.0969 20.289 39.0366 20.4565C38.9764 20.6241 38.8691 20.7749 38.7016 20.8586C38.4764 20.9791 38.2157 21.0262 37.9644 21.0262L37.5958 21.0262L37.5958 21.3277L45.8052 21.3277L46.7099 18.6471L46.4084 18.6471C46.0681 19.3016 45.7277 19.7969 45.4031 20.1215C45.1518 20.3675 44.9047 20.5403 44.6325 20.6241C44.3602 20.7079 43.9277 20.7246 43.3257 20.7246L41.5162 20.7246C41.223 20.7246 41.0178 20.7178 40.9131 20.6576C40.8084 20.5974 40.7204 20.4916 40.6785 20.3895C40.6366 20.2874 40.645 20.023 40.645 19.5518L40.645 16.0335L42.9571 16.0335C43.4021 16.0335 43.7476 16.0963 43.9623 16.201C44.177 16.3058 44.3372 16.4534 44.4314 16.6366C44.5047 16.7832 44.5592 17.0901 44.6325 17.6084L44.934 17.6084L44.934 13.9225L44.6325 13.9225C44.601 14.5298 44.4691 14.955 44.1969 15.1958C43.9927 15.3791 43.5644 15.4639 42.9571 15.4639L40.645 15.4639L40.645 11.2419L43.5602 11.2419C44.089 11.2419 44.4565 11.2974 44.666 11.3759C44.9277 11.4859 45.1356 11.6356 45.2691 11.845C45.4026 12.0545 45.4942 12.4576 45.6042 13.0178L45.9393 13.0178L45.8052 10.6723L37.5958 10.6723ZM58.8063 10.6723L58.8063 10.9738L59.2084 10.9738C59.6115 10.9738 59.899 11.0712 60.0796 11.2754C60.2602 11.4796 60.3476 11.8942 60.3476 12.5487L60.3476 16.7037C60.3476 17.9864 60.4147 18.8848 60.5822 19.3508C60.8335 20.0314 61.2869 20.556 61.889 20.9592C62.4911 21.3623 63.3738 21.5623 64.5361 21.5623C65.6042 21.5623 66.4288 21.3471 67.0492 20.9257C67.6696 20.5042 68.077 20.0068 68.289 19.4178C68.501 18.8288 68.6241 18.0063 68.6241 16.9382L68.6241 12.6157C68.6241 12.0241 68.6817 11.6387 68.7916 11.4764C69.0168 11.1257 69.3445 10.9738 69.7634 10.9738L70.1654 10.9738L70.1654 10.6723L66.3791 10.6723L66.3791 10.9738L66.7812 10.9738C67.1843 10.9738 67.4817 11.0785 67.6859 11.3089C67.8325 11.4764 67.9204 11.8838 67.9204 12.5487L67.9204 16.8712C67.9204 18.0021 67.8204 18.8099 67.6188 19.2838C67.4173 19.7576 67.0293 20.1529 66.4796 20.4565C65.9298 20.7602 65.2995 20.8921 64.6031 20.8921C64.0586 20.8921 63.6037 20.7843 63.2293 20.5906C62.855 20.3969 62.5906 20.1518 62.3916 19.8534C62.1927 19.555 62.0319 19.1476 61.956 18.6136C61.8801 18.0796 61.8555 17.6199 61.8555 17.2063L61.8555 12.5487C61.8555 11.9518 61.9257 11.5644 62.0565 11.3759C62.245 11.0984 62.555 10.9738 62.9948 10.9738L63.3969 10.9738L63.3969 10.6723L58.8063 10.6723ZM70.7351 10.6723L70.7351 10.9738L71.1037 10.9738C71.355 10.9738 71.6105 11.0157 71.8408 11.1414C72.0031 11.2356 72.0901 11.3455 72.1424 11.4764C72.2105 11.6492 72.2429 12.0094 72.2429 12.5487L72.2429 19.4513C72.2429 20.0901 72.201 20.4901 72.0754 20.6576C71.8764 20.9141 71.5435 21.0262 71.1037 21.0262L70.7351 21.0262L70.7351 21.3277L75.2921 21.3277L75.2921 21.0262L74.8901 21.0262C74.6387 21.0262 74.4115 20.9508 74.1864 20.8251C74.0188 20.7309 73.9037 20.6209 73.8513 20.4901C73.7832 20.3173 73.7508 19.9906 73.7508 19.4513L73.7508 12.5487C73.7508 11.9099 73.8209 11.5099 73.9518 11.3424C74.1508 11.0859 74.4555 10.9738 74.8901 10.9738L75.2921 10.9738L75.2921 10.6723L70.7351 10.6723ZM75.9958 10.6723L75.9958 10.9738L76.3979 10.9738C76.801 10.9738 77.0984 11.0785 77.3026 11.3089C77.4492 11.4764 77.5372 11.8838 77.5372 12.5487L77.5372 19.4178C77.5372 20.0251 77.4796 20.423 77.3696 20.5906C77.1759 20.8838 76.8482 21.0262 76.3979 21.0262L75.9958 21.0262L75.9958 21.3277L84.2387 21.3277L85.177 18.4461L84.9089 18.3791C84.6366 19.0387 84.3435 19.5136 84.0712 19.8199C83.799 20.1262 83.4963 20.3361 83.1665 20.4565C82.8366 20.577 82.2743 20.6576 81.4576 20.6576L80.6869 20.6576C80.001 20.6576 79.578 20.6094 79.4471 20.5571C79.3162 20.5047 79.2419 20.4325 79.1791 20.3225C79.0953 20.1602 79.045 19.8524 79.045 19.4178L79.045 12.7497C79.045 12.1162 79.0953 11.711 79.1791 11.5435C79.2628 11.3759 79.4204 11.2178 79.6482 11.1079C79.8759 10.9979 80.2555 10.9686 80.8209 10.9738L80.8209 10.6723L75.9958 10.6723ZM85.7801 10.6723L85.7801 10.9738L86.1822 10.9738C86.5853 10.9738 86.8827 11.0785 87.0869 11.3089C87.2335 11.4764 87.3215 11.8838 87.3215 12.5487L87.3215 19.4513C87.3215 20.0534 87.2691 20.4178 87.1539 20.5906C86.9654 20.8785 86.6325 21.0262 86.1822 21.0262L85.7801 21.0262L85.7801 21.3277L90.5382 21.3277C92.6063 21.3277 94.1518 20.7623 95.1623 19.6524C96.0628 18.6576 96.5026 17.4147 96.5026 15.933C96.5026 14.8283 96.2707 13.8607 95.7654 13.0178C95.2602 12.1749 94.5848 11.5696 93.755 11.2084C92.9251 10.8471 91.6942 10.6723 90.1026 10.6723L85.7801 10.6723ZM96.9047 10.6723L96.9047 10.9738C97.2136 10.9738 97.4565 10.9937 97.6084 11.0408C97.9173 11.1403 98.1524 11.2272 98.312 11.3424C98.4717 11.4576 98.7068 11.7183 99.0157 12.0796L99.0157 19.4848C99.0157 20.0817 98.9634 20.4565 98.8482 20.6241C98.6597 20.8963 98.3319 21.0262 97.8764 21.0262L97.5079 21.0262L97.5079 21.3277L101.194 21.3277L101.194 21.0262L100.825 21.0262C100.412 21.0262 100.119 20.911 99.9204 20.6911C99.7791 20.5288 99.6859 20.1393 99.6859 19.4848L99.6859 12.9173L106.723 21.4953L106.991 21.4953L106.991 12.5152C106.991 11.9183 107.043 11.5435 107.158 11.3759C107.347 11.1037 107.68 10.9738 108.13 10.9738L108.498 10.9738L108.498 10.6723L104.813 10.6723L104.813 10.9738L105.181 10.9738C105.6 10.9738 105.892 11.0555 106.086 11.2754C106.232 11.4377 106.32 11.8607 106.32 12.5152L106.32 18.6471L99.7864 10.6723L96.9047 10.6723ZM109.068 10.6723L109.068 10.9738L109.437 10.9738C109.876 10.9738 110.186 11.066 110.375 11.2754C110.511 11.4325 110.576 11.8398 110.576 12.5152L110.576 19.4513C110.576 19.9696 110.569 20.289 110.509 20.4565C110.449 20.6241 110.341 20.7749 110.174 20.8586C109.949 20.9791 109.688 21.0262 109.437 21.0262L109.068 21.0262L109.068 21.3277L117.277 21.3277L118.182 18.6471L117.881 18.6471C117.54 19.3016 117.2 19.7969 116.875 20.1215C116.624 20.3675 116.377 20.5403 116.105 20.6241C115.832 20.7079 115.4 20.7246 114.798 20.7246L112.988 20.7246C112.695 20.7246 112.49 20.7178 112.385 20.6576C112.281 20.5974 112.193 20.4916 112.151 20.3895C112.109 20.2874 112.084 20.023 112.084 19.5518L112.084 16.0335L114.429 16.0335C114.874 16.0335 115.22 16.0963 115.435 16.201C115.649 16.3058 115.809 16.4534 115.904 16.6366C115.977 16.7832 116.031 17.0901 116.105 17.6084L116.406 17.6084L116.406 13.9225L116.105 13.9225C116.073 14.5298 115.941 14.955 115.669 15.1958C115.465 15.3791 115.037 15.4639 114.429 15.4639L112.084 15.4639L112.084 11.2419L115.032 11.2419C115.561 11.2419 115.929 11.2974 116.138 11.3759C116.4 11.4859 116.574 11.6356 116.708 11.845C116.841 12.0545 116.966 12.4576 117.076 13.0178L117.378 13.0178L117.277 10.6723L109.068 10.6723ZM119.187 10.6723L119.053 13.1853L119.355 13.1853C119.392 12.7037 119.496 12.2953 119.69 12.0126C119.884 11.7298 120.121 11.5424 120.394 11.4429C120.603 11.3696 120.969 11.3424 121.466 11.3424L122.739 11.3424L122.739 19.4848C122.739 20.0817 122.687 20.4565 122.572 20.6241C122.383 20.8963 122.05 21.0262 121.6 21.0262L121.231 21.0262L121.231 21.3277L125.755 21.3277L125.755 21.0262L125.386 21.0262C124.973 21.0262 124.647 20.911 124.448 20.6911C124.307 20.5288 124.247 20.1393 124.247 19.4848L124.247 11.3424L125.755 11.3424C126.195 11.3424 126.524 11.3995 126.794 11.5435C127.063 11.6874 127.302 11.9099 127.464 12.2136C127.563 12.4021 127.641 12.7455 127.698 13.1853L128 13.1853L127.866 10.6723L119.187 10.6723ZM17.089 11.0073C18.1047 11.0073 18.8921 11.3675 19.4681 12.0796C20.1853 12.9749 20.5403 14.312 20.5403 16.134C20.5403 17.8147 20.2204 19.0398 19.5686 19.8199C18.9168 20.6 18.089 20.9927 17.089 20.9927C16.1518 20.9927 15.4147 20.666 14.844 19.9539C14.1005 19.0168 13.7047 17.6712 13.7047 15.933C13.7047 14.2366 14.0932 12.9257 14.8105 12.0461C15.3864 11.3393 16.1361 11.0073 17.089 11.0073ZM90.4377 11.2754C91.6942 11.2754 92.7194 11.7005 93.5204 12.5487C94.3215 13.3969 94.7267 14.5623 94.7267 16.0335C94.7267 17.4942 94.3215 18.6314 93.5204 19.4848C92.7194 20.3382 91.7194 20.7581 90.5047 20.7581C90.0545 20.7581 89.4942 20.7037 88.8293 20.5571L88.8293 11.5099C89.4314 11.3581 89.9665 11.2754 90.4377 11.2754Z" fill="#231f20" fill-rule="evenodd" opacity="1" stroke="none"/>
</svg>
